<svg xmlns="http://www.w3.org/2000/svg" width="63" height="64" viewBox="0 0 63 64" fill="none">
  <circle cx="31.5" cy="31.7175" r="31.5" fill="url(#paint0_linear_1_4802)"/>
  <path d="M41 29.3604H37.8579C37.4412 29.3604 37.0416 29.5209 36.747 29.8067C36.4523 30.0925 36.2868 30.48 36.2868 30.8842V34.6936C36.2868 35.0978 36.4523 35.4853 36.747 35.7711C37.0416 36.0569 37.4412 36.2174 37.8579 36.2174H39.4289C39.8456 36.2174 40.2452 36.0569 40.5398 35.7711C40.8345 35.4853 41 35.0978 41 34.6936V29.3604ZM41 29.3604C41 28.1533 40.7536 26.9582 40.275 25.844C39.7964 24.7297 39.095 23.7184 38.2114 22.8685C37.3277 22.0185 36.2793 21.3466 35.1265 20.8917C33.9738 20.4367 32.7396 20.2077 31.4951 20.2177C30.2514 20.2089 29.0183 20.4389 27.8667 20.8944C26.7151 21.35 25.6678 22.022 24.7852 22.8719C23.9026 23.7217 23.2021 24.7326 22.7241 25.8462C22.246 26.9598 22 28.1541 22 29.3604V34.6936C22 35.0978 22.1655 35.4853 22.4602 35.7711C22.7548 36.0569 23.1544 36.2174 23.5711 36.2174H25.1421C25.5588 36.2174 25.9584 36.0569 26.253 35.7711C26.5477 35.4853 26.7132 35.0978 26.7132 34.6936V30.8842C26.7132 30.48 26.5477 30.0925 26.253 29.8067C25.9584 29.5209 25.5588 29.3604 25.1421 29.3604H22" stroke="#1C1F35" stroke-width="2" stroke-linecap="round" stroke-linejoin="round"/>
  <path d="M41 35.2174V37.3603C41 38.118 40.661 38.8448 40.0575 39.3806C39.454 39.9164 38.6356 40.2174 37.7821 40.2174H32" stroke="#1C1F35" stroke-width="2" stroke-linecap="round" stroke-linejoin="round"/>
  <defs>
    <linearGradient id="paint0_linear_1_4802" x1="-1.78608" y1="13.8675" x2="77.4684" y2="19.4957" gradientUnits="userSpaceOnUse">
      <stop stop-color="#F58634"/>
      <stop offset="0.507189" stop-color="#ED971F"/>
      <stop offset="1" stop-color="#E0A800"/>
    </linearGradient>
  </defs>
</svg>