<svg xmlns="http://www.w3.org/2000/svg" width="63" height="64" viewBox="0 0 63 64" fill="none">
  <circle cx="31.5" cy="31.7174" r="31.5" fill="url(#paint0_linear_1_4785)"/>
  <path d="M32 20.2174C38.6274 20.2174 44 25.59 44 32.2174C44 38.8448 38.6274 44.2174 32 44.2174C25.3726 44.2174 20 38.8448 20 32.2174C20 25.59 25.3726 20.2174 32 20.2174Z" stroke="#1C1F35" stroke-width="2" stroke-linecap="round" stroke-linejoin="round"/>
  <path d="M21 36.2174H43" stroke="#1C1F35" stroke-width="2" stroke-linecap="round" stroke-linejoin="round"/>
  <path d="M21 28.2174H43" stroke="#1C1F35" stroke-width="2" stroke-linecap="round" stroke-linejoin="round"/>
  <path d="M32 20.2174C34.2091 20.2174 36 25.59 36 32.2174C36 38.8448 34.2091 44.2174 32 44.2174C29.7909 44.2174 28 38.8448 28 32.2174C28 25.59 29.7909 20.2174 32 20.2174Z" stroke="#1C1F35" stroke-width="2" stroke-linecap="round" stroke-linejoin="round"/>
  <defs>
    <linearGradient id="paint0_linear_1_4785" x1="-1.78608" y1="13.8674" x2="77.4684" y2="19.4956" gradientUnits="userSpaceOnUse">
      <stop stop-color="#F58634"/>
      <stop offset="0.507189" stop-color="#ED971F"/>
      <stop offset="1" stop-color="#E0A800"/>
    </linearGradient>
  </defs>
</svg>